
<svg xmlns="http://www.w3.org/2000/svg"
     xmlns:xlink="http://www.w3.org/1999/xlink" version="1.1" width="921"
     height="364">
    <defs/>
    <g transform=" scale(0.9) translate(-58.64999999999999,4.35)">
        <rect x="475.3" y="216.3" width="1.4" height="1.4" fill="#000000"
              stroke="none" pointer-events="none"/>
        <rect x="475.3" y="181.3" width="1.4" height="1.4" fill="#000000"
              stroke="none" pointer-events="none"/>
        <path d="M 476 205.1 L 476 216.3" fill="none" stroke="#000000"
              stroke-width="1.4" stroke-linecap="square" stroke-miterlimit="10"
              pointer-events="none"/>
        <path d="M 476 182.7 L 476 193.9" fill="none" stroke="#000000"
              stroke-width="1.4" stroke-linecap="square" stroke-miterlimit="10"
              pointer-events="none"/>
        <rect x="468.44" y="194.62" width="15.4" height="3.5" fill="#000000"
              stroke="#000000" stroke-width="1.4" pointer-events="none"/>
        <rect x="468.44" y="201.18" width="15.4" height="3.5" fill="#000000"
              stroke="#000000" stroke-width="1.4" pointer-events="none"/>
        <rect x="483" y="210" width="18.9" height="9.1" fill-opacity="0"
              fill="#dae2f2" stroke="none" pointer-events="none"/>
        <g fill="#000000" font-family="Arial,Helvetica" font-weight="bold"
           text-anchor="middle" font-size="8.399999999999999px">
            <text x="492.45" y="217.35">
                C208
            </text>
        </g>
        <rect x="475.3" y="216.3" width="1.4" height="1.4" fill="#000000"
              stroke="none" pointer-events="none"/>
        <path d="M 468.3 231.7 C 483.71 231.7 483.71 231.7 483.71 231.7"
              fill="none" stroke="#000000" stroke-width="1.4"
              stroke-linecap="round" stroke-miterlimit="10"
              pointer-events="none"/>
        <path d="M 471.1 235.9 C 477.8 235.9 480.9 235.9 480.9 235.9"
              fill="none" stroke="#000000" stroke-width="1.4"
              stroke-linecap="round" stroke-miterlimit="10"
              pointer-events="none"/>
        <path d="M 473.9 240.1 C 476.08 240.1 478.1 240.1 478.1 240.1"
              fill="none" stroke="#000000" stroke-width="1.4"
              stroke-linecap="round" stroke-miterlimit="10"
              pointer-events="none"/>
        <path d="M 476 217.7 L 476 230.3" fill="#000000" stroke="#000000"
              stroke-width="1.4" stroke-linecap="square" stroke-miterlimit="10"
              pointer-events="none"/>
        <rect x="616" y="140" width="70" height="70" fill="#6ccefb"
              stroke="#000" stroke-width="2.1" pointer-events="none"/>
        <path d="M 686 149.8 L 686 149.8" fill="none" stroke="#000"
              stroke-width="1.4" stroke-miterlimit="10" pointer-events="none"/>
        <path d="M 686 159.6 L 686 159.6" fill="none" stroke="#000"
              stroke-width="1.4" stroke-miterlimit="10" pointer-events="none"/>
        <path d="M 686 169.4 L 686 169.4" fill="none" stroke="#000"
              stroke-width="1.4" stroke-miterlimit="10" pointer-events="none"/>
        <path d="M 686 179.2 L 686 179.2" fill="none" stroke="#000"
              stroke-width="1.4" stroke-miterlimit="10" pointer-events="none"/>
        <path d="M 686 189 L 686 189" fill="none" stroke="#000"
              stroke-width="1.4" stroke-miterlimit="10" pointer-events="none"/>
        <path d="M 686 198.8 L 686 198.8" fill="none" stroke="#000"
              stroke-width="1.4" stroke-miterlimit="10" pointer-events="none"/>
        <path d="M 676.2 210 L 676.2 210" fill="none" stroke="#000"
              stroke-width="1.4" stroke-miterlimit="10" pointer-events="none"/>
        <path d="M 666.4 210 L 666.4 210" fill="none" stroke="#000"
              stroke-width="1.4" stroke-miterlimit="10" pointer-events="none"/>
        <path d="M 656.6 210 L 656.6 210" fill="none" stroke="#000"
              stroke-width="1.4" stroke-miterlimit="10" pointer-events="none"/>
        <path d="M 646.8 210 L 646.8 210" fill="none" stroke="#000"
              stroke-width="1.4" stroke-miterlimit="10" pointer-events="none"/>
        <path d="M 637 210 L 637 210" fill="none" stroke="#000"
              stroke-width="1.4" stroke-miterlimit="10" pointer-events="none"/>
        <path d="M 627.2 210 L 627.2 210" fill="none" stroke="#000"
              stroke-width="1.4" stroke-miterlimit="10" pointer-events="none"/>
        <path d="M 616 200.2 L 616 200.2" fill="none" stroke="#000"
              stroke-width="1.4" stroke-miterlimit="10" pointer-events="none"/>
        <path d="M 616 190.4 L 616 190.4" fill="none" stroke="#000"
              stroke-width="1.4" stroke-miterlimit="10" pointer-events="none"/>
        <path d="M 616 180.6 L 616 180.6" fill="none" stroke="#000"
              stroke-width="1.4" stroke-miterlimit="10" pointer-events="none"/>
        <path d="M 616 170.8 L 616 170.8" fill="none" stroke="#000"
              stroke-width="1.4" stroke-miterlimit="10" pointer-events="none"/>
        <path d="M 616 161 L 616 161" fill="none" stroke="#000"
              stroke-width="1.4" stroke-miterlimit="10" pointer-events="none"/>
        <path d="M 616 151.2 L 616 151.2" fill="none" stroke="#000"
              stroke-width="1.4" stroke-miterlimit="10" pointer-events="none"/>
        <path d="M 625.8 140 L 625.8 140" fill="none" stroke="#000"
              stroke-width="1.4" stroke-miterlimit="10" pointer-events="none"/>
        <path d="M 635.6 140 L 635.6 140" fill="none" stroke="#000"
              stroke-width="1.4" stroke-miterlimit="10" pointer-events="none"/>
        <path d="M 645.4 140 L 645.4 140" fill="none" stroke="#000"
              stroke-width="1.4" stroke-miterlimit="10" pointer-events="none"/>
        <path d="M 655.2 140 L 655.2 140" fill="none" stroke="#000"
              stroke-width="1.4" stroke-miterlimit="10" pointer-events="none"/>
        <path d="M 665 140 L 665 140" fill="none" stroke="#000"
              stroke-width="1.4" stroke-miterlimit="10" pointer-events="none"/>
        <path d="M 674.8 140 L 674.8 140" fill="none" stroke="#000"
              stroke-width="1.4" stroke-miterlimit="10" pointer-events="none"/>
        <rect x="644" y="217" width="15.4" height="9.8" fill-opacity="0"
              fill="#dae2f2" stroke="none" pointer-events="none"/>
        <g fill="#000000" font-family="Arial,Helvetica" font-weight="bold"
           text-anchor="middle" font-size="8.399999999999999px">
            <text x="651.7" y="224.7">
                U56
            </text>
        </g>
        <rect x="637" y="168" width="27.3" height="9.1" fill-opacity="0"
              fill="#dae2f2" stroke="none" pointer-events="none"/>
        <g fill="#000000" font-family="Arial,Helvetica" font-weight="bold"
           text-anchor="middle" font-size="8.399999999999999px">
            <text x="650.65" y="175.35">
                Combel
            </text>
        </g>
        <rect x="510.3" y="153.3" width="1.4" height="1.4" fill="#000000"
              stroke="none"
              transform="translate(0,175)scale(1,-1)translate(0,-175)rotate(-270,511,175)"
              pointer-events="none"/>
        <rect x="510.3" y="195.3" width="1.4" height="1.4" fill="#000000"
              stroke="none"
              transform="translate(0,175)scale(1,-1)translate(0,-175)rotate(-270,511,175)"
              pointer-events="none"/>
        <path d="M 511 154.7 L 511 161.7" fill="#000000" stroke="#000000"
              stroke-width="1.4" stroke-linecap="square" stroke-miterlimit="10"
              transform="translate(0,175)scale(1,-1)translate(0,-175)rotate(-270,511,175)"
              pointer-events="none"/>
        <path d="M 511 188.3 L 511 195.3" fill="#000000" stroke="#000000"
              stroke-width="1.4" stroke-linecap="square" stroke-miterlimit="10"
              transform="translate(0,175)scale(1,-1)translate(0,-175)rotate(-270,511,175)"
              pointer-events="none"/>
        <path d="M 506.1 162.4 C 515.48 162.28 515.9 162.4 515.9 162.4 L 515.9 187.6 L 506.1 187.6 Z"
              fill="#ffffff" stroke="#000000" stroke-width="1.4"
              stroke-linejoin="round" stroke-linecap="round"
              stroke-miterlimit="10"
              transform="translate(0,175)scale(1,-1)translate(0,-175)rotate(-270,511,175)"
              pointer-events="none"/>
        <rect x="499.8" y="182" width="18.2" height="9.1" fill-opacity="0"
              fill="#dae2f2" stroke="none" pointer-events="none"/>
        <g fill="#000000" font-family="Arial,Helvetica" font-weight="bold"
           text-anchor="middle" font-size="8.399999999999999px">
            <text x="508.9" y="189.35">
                R217
            </text>
        </g>
        <path d="M 616 175 L 535.13 175" fill="none" stroke="#000000"
              stroke-width="1.4" stroke-miterlimit="10" pointer-events="none"/>
        <path d="M 537.77 172.9 L 533.57 175 L 537.77 177.1" fill="none"
              stroke="#000000" stroke-width="1.4" stroke-miterlimit="10"
              pointer-events="none"/>
        <g fill="#000000" font-family="Arial,Helvetica" text-anchor="middle"
           font-size="7.699999999999999px">
            <rect fill="#FFFFFF" stroke="none" x="549" y="163" width="64"
                  height="10" stroke-width="0"/>
            <text x="581" y="170.45">
                #191 (CPUCLKO)
            </text>
        </g>
        <rect x="377.3" y="237.3" width="1.4" height="1.4" fill="#000000"
              stroke="none"
              transform="translate(0,259)scale(1,-1)translate(0,-259)rotate(-180,378,259)"
              pointer-events="none"/>
        <rect x="377.3" y="279.3" width="1.4" height="1.4" fill="#000000"
              stroke="none"
              transform="translate(0,259)scale(1,-1)translate(0,-259)rotate(-180,378,259)"
              pointer-events="none"/>
        <path d="M 378 238.7 L 378 245.7" fill="#000000" stroke="#000000"
              stroke-width="1.4" stroke-linecap="square" stroke-miterlimit="10"
              transform="translate(0,259)scale(1,-1)translate(0,-259)rotate(-180,378,259)"
              pointer-events="none"/>
        <path d="M 378 272.3 L 378 279.3" fill="#000000" stroke="#000000"
              stroke-width="1.4" stroke-linecap="square" stroke-miterlimit="10"
              transform="translate(0,259)scale(1,-1)translate(0,-259)rotate(-180,378,259)"
              pointer-events="none"/>
        <path d="M 373.1 246.4 C 382.48 246.28 382.9 246.4 382.9 246.4 L 382.9 271.6 L 373.1 271.6 Z"
              fill="#ffffff" stroke="#000000" stroke-width="1.4"
              stroke-linejoin="round" stroke-linecap="round"
              stroke-miterlimit="10"
              transform="translate(0,259)scale(1,-1)translate(0,-259)rotate(-180,378,259)"
              pointer-events="none"/>
        <rect x="385" y="266" width="18.9" height="9.1" fill-opacity="0"
              fill="#dae2f2" stroke="none" pointer-events="none"/>
        <g fill="#000000" font-family="Arial,Helvetica" font-weight="bold"
           text-anchor="middle" font-size="8.399999999999999px">
            <text x="394.45" y="273.35">
                R222
            </text>
        </g>
        <rect x="293.3" y="237.3" width="1.4" height="1.4" fill="#000000"
              stroke="none"
              transform="translate(0,259)scale(1,-1)translate(0,-259)rotate(-180,294,259)"
              pointer-events="none"/>
        <rect x="293.3" y="279.3" width="1.4" height="1.4" fill="#000000"
              stroke="none"
              transform="translate(0,259)scale(1,-1)translate(0,-259)rotate(-180,294,259)"
              pointer-events="none"/>
        <path d="M 294 238.7 L 294 245.7" fill="#000000" stroke="#000000"
              stroke-width="1.4" stroke-linecap="square" stroke-miterlimit="10"
              transform="translate(0,259)scale(1,-1)translate(0,-259)rotate(-180,294,259)"
              pointer-events="none"/>
        <path d="M 294 272.3 L 294 279.3" fill="#000000" stroke="#000000"
              stroke-width="1.4" stroke-linecap="square" stroke-miterlimit="10"
              transform="translate(0,259)scale(1,-1)translate(0,-259)rotate(-180,294,259)"
              pointer-events="none"/>
        <path d="M 289.1 246.4 C 298.48 246.28 298.9 246.4 298.9 246.4 L 298.9 271.6 L 289.1 271.6 Z"
              fill="#ffffff" stroke="#000000" stroke-width="1.4"
              stroke-linejoin="round" stroke-linecap="round"
              stroke-miterlimit="10"
              transform="translate(0,259)scale(1,-1)translate(0,-259)rotate(-180,294,259)"
              pointer-events="none"/>
        <rect x="301" y="266" width="18.9" height="9.1" fill-opacity="0"
              fill="#dae2f2" stroke="none" pointer-events="none"/>
        <g fill="#000000" font-family="Arial,Helvetica" font-weight="bold"
           text-anchor="middle" font-size="8.399999999999999px">
            <text x="310.45" y="273.35">
                R216
            </text>
        </g>
        <rect x="175" y="105" width="119" height="14" fill="#6ccefb"
              stroke="#000" pointer-events="none"/>
        <path d="M 294 106.96 L 294 106.96" fill="none" stroke="#000"
              stroke-miterlimit="10" pointer-events="none"/>
        <path d="M 294 108.92 L 294 108.92" fill="none" stroke="#000"
              stroke-miterlimit="10" pointer-events="none"/>
        <path d="M 294 110.88 L 294 110.88" fill="none" stroke="#000"
              stroke-miterlimit="10" pointer-events="none"/>
        <path d="M 294 112.84 L 294 112.84" fill="none" stroke="#000"
              stroke-miterlimit="10" pointer-events="none"/>
        <path d="M 294 114.8 L 294 114.8" fill="none" stroke="#000"
              stroke-miterlimit="10" pointer-events="none"/>
        <path d="M 294 116.76 L 294 116.76" fill="none" stroke="#000"
              stroke-miterlimit="10" pointer-events="none"/>
        <path d="M 277.34 119 L 277.34 119" fill="none" stroke="#000"
              stroke-miterlimit="10" pointer-events="none"/>
        <path d="M 260.68 119 L 260.68 119" fill="none" stroke="#000"
              stroke-miterlimit="10" pointer-events="none"/>
        <path d="M 244.02 119 L 244.02 119" fill="none" stroke="#000"
              stroke-miterlimit="10" pointer-events="none"/>
        <path d="M 227.36 119 L 227.36 119" fill="none" stroke="#000"
              stroke-miterlimit="10" pointer-events="none"/>
        <path d="M 210.7 119 L 210.7 119" fill="none" stroke="#000"
              stroke-miterlimit="10" pointer-events="none"/>
        <path d="M 194.04 119 L 194.04 119" fill="none" stroke="#000"
              stroke-miterlimit="10" pointer-events="none"/>
        <path d="M 175 117.04 L 175 117.04" fill="none" stroke="#000"
              stroke-miterlimit="10" pointer-events="none"/>
        <path d="M 175 115.08 L 175 115.08" fill="none" stroke="#000"
              stroke-miterlimit="10" pointer-events="none"/>
        <path d="M 175 113.12 L 175 113.12" fill="none" stroke="#000"
              stroke-miterlimit="10" pointer-events="none"/>
        <path d="M 175 111.16 L 175 111.16" fill="none" stroke="#000"
              stroke-miterlimit="10" pointer-events="none"/>
        <path d="M 175 109.2 L 175 109.2" fill="none" stroke="#000"
              stroke-miterlimit="10" pointer-events="none"/>
        <path d="M 175 107.24 L 175 107.24" fill="none" stroke="#000"
              stroke-miterlimit="10" pointer-events="none"/>
        <path d="M 191.66 105 L 191.66 105" fill="none" stroke="#000"
              stroke-miterlimit="10" pointer-events="none"/>
        <path d="M 208.32 105 L 208.32 105" fill="none" stroke="#000"
              stroke-miterlimit="10" pointer-events="none"/>
        <path d="M 224.98 105 L 224.98 105" fill="none" stroke="#000"
              stroke-miterlimit="10" pointer-events="none"/>
        <path d="M 241.64 105 L 241.64 105" fill="none" stroke="#000"
              stroke-miterlimit="10" pointer-events="none"/>
        <path d="M 258.3 105 L 258.3 105" fill="none" stroke="#000"
              stroke-miterlimit="10" pointer-events="none"/>
        <path d="M 274.96 105 L 274.96 105" fill="none" stroke="#000"
              stroke-miterlimit="10" pointer-events="none"/>
        <rect x="224" y="126" width="13.3" height="9.8" fill-opacity="0"
              fill="#dae2f2" stroke="none" pointer-events="none"/>
        <g fill="#000000" font-family="Arial,Helvetica" font-weight="bold"
           text-anchor="middle" font-size="8.399999999999999px">
            <text x="230.65" y="133.7">
                J16
            </text>
        </g>
        <rect x="210" y="105" width="51.8" height="9.1" fill-opacity="0"
              fill="#dae2f2" stroke="none" pointer-events="none"/>
        <g fill="#000000" font-family="Arial,Helvetica" font-weight="bold"
           text-anchor="middle" font-size="8.399999999999999px">
            <text x="235.9" y="112.35">
                Expansion slot
            </text>
        </g>
        <path d="M 294 224 L 294 189 Q 294 182 287 182 L 255 182 Q 248 182 248 175 L 248 122.13"
              fill="none" stroke="#000000" stroke-width="1.4"
              stroke-miterlimit="10" pointer-events="none"/>
        <path d="M 250.1 124.77 L 248 120.57 L 245.9 124.77" fill="none"
              stroke="#000000" stroke-width="1.4" stroke-miterlimit="10"
              pointer-events="none"/>
        <g fill="#000000" font-family="Arial,Helvetica" text-anchor="middle"
           font-size="7.699999999999999px">
            <rect fill="#FFFFFF" stroke="none" x="258" y="121" width="60"
                  height="10" stroke-width="0"/>
            <text x="287.2" y="128.45">
                #23 (CPUCLKC)
            </text>
        </g>
        <rect x="63" y="196" width="77" height="14" fill="#6ccefb" stroke="#000"
              pointer-events="none"/>
        <path d="M 140 197.96 L 140 197.96" fill="none" stroke="#000"
              stroke-miterlimit="10" pointer-events="none"/>
        <path d="M 140 199.92 L 140 199.92" fill="none" stroke="#000"
              stroke-miterlimit="10" pointer-events="none"/>
        <path d="M 140 201.88 L 140 201.88" fill="none" stroke="#000"
              stroke-miterlimit="10" pointer-events="none"/>
        <path d="M 140 203.84 L 140 203.84" fill="none" stroke="#000"
              stroke-miterlimit="10" pointer-events="none"/>
        <path d="M 140 205.8 L 140 205.8" fill="none" stroke="#000"
              stroke-miterlimit="10" pointer-events="none"/>
        <path d="M 140 207.76 L 140 207.76" fill="none" stroke="#000"
              stroke-miterlimit="10" pointer-events="none"/>
        <path d="M 129.22 210 L 129.22 210" fill="none" stroke="#000"
              stroke-miterlimit="10" pointer-events="none"/>
        <path d="M 118.44 210 L 118.44 210" fill="none" stroke="#000"
              stroke-miterlimit="10" pointer-events="none"/>
        <path d="M 107.66 210 L 107.66 210" fill="none" stroke="#000"
              stroke-miterlimit="10" pointer-events="none"/>
        <path d="M 96.88 210 L 96.88 210" fill="none" stroke="#000"
              stroke-miterlimit="10" pointer-events="none"/>
        <path d="M 86.1 210 L 86.1 210" fill="none" stroke="#000"
              stroke-miterlimit="10" pointer-events="none"/>
        <path d="M 75.32 210 L 75.32 210" fill="none" stroke="#000"
              stroke-miterlimit="10" pointer-events="none"/>
        <path d="M 63 208.04 L 63 208.04" fill="none" stroke="#000"
              stroke-miterlimit="10" pointer-events="none"/>
        <path d="M 63 206.08 L 63 206.08" fill="none" stroke="#000"
              stroke-miterlimit="10" pointer-events="none"/>
        <path d="M 63 204.12 L 63 204.12" fill="none" stroke="#000"
              stroke-miterlimit="10" pointer-events="none"/>
        <path d="M 63 202.16 L 63 202.16" fill="none" stroke="#000"
              stroke-miterlimit="10" pointer-events="none"/>
        <path d="M 63 200.2 L 63 200.2" fill="none" stroke="#000"
              stroke-miterlimit="10" pointer-events="none"/>
        <path d="M 63 198.24 L 63 198.24" fill="none" stroke="#000"
              stroke-miterlimit="10" pointer-events="none"/>
        <path d="M 73.78 196 L 73.78 196" fill="none" stroke="#000"
              stroke-miterlimit="10" pointer-events="none"/>
        <path d="M 84.56 196 L 84.56 196" fill="none" stroke="#000"
              stroke-miterlimit="10" pointer-events="none"/>
        <path d="M 95.34 196 L 95.34 196" fill="none" stroke="#000"
              stroke-miterlimit="10" pointer-events="none"/>
        <path d="M 106.12 196 L 106.12 196" fill="none" stroke="#000"
              stroke-miterlimit="10" pointer-events="none"/>
        <path d="M 116.9 196 L 116.9 196" fill="none" stroke="#000"
              stroke-miterlimit="10" pointer-events="none"/>
        <path d="M 127.68 196 L 127.68 196" fill="none" stroke="#000"
              stroke-miterlimit="10" pointer-events="none"/>
        <rect x="91" y="217" width="12.6" height="9.1" fill-opacity="0"
              fill="#dae2f2" stroke="none" pointer-events="none"/>
        <g fill="#000000" font-family="Arial,Helvetica" font-weight="bold"
           text-anchor="middle" font-size="8.399999999999999px">
            <text x="97.3" y="224.35">
                J20
            </text>
        </g>
        <rect x="77" y="196" width="51.8" height="9.1" fill-opacity="0"
              fill="#dae2f2" stroke="none" pointer-events="none"/>
        <g fill="#000000" font-family="Arial,Helvetica" font-weight="bold"
           text-anchor="middle" font-size="8.399999999999999px">
            <text x="102.9" y="203.35">
                Expansion slot
            </text>
        </g>
        <rect x="210" y="0" width="70" height="70" fill="#6ccefb" stroke="#000"
              stroke-width="2.1" pointer-events="none"/>
        <path d="M 280 9.8 L 280 9.8" fill="none" stroke="#000"
              stroke-width="1.4" stroke-miterlimit="10" pointer-events="none"/>
        <path d="M 280 19.6 L 280 19.6" fill="none" stroke="#000"
              stroke-width="1.4" stroke-miterlimit="10" pointer-events="none"/>
        <path d="M 280 29.4 L 280 29.4" fill="none" stroke="#000"
              stroke-width="1.4" stroke-miterlimit="10" pointer-events="none"/>
        <path d="M 280 39.2 L 280 39.2" fill="none" stroke="#000"
              stroke-width="1.4" stroke-miterlimit="10" pointer-events="none"/>
        <path d="M 280 49 L 280 49" fill="none" stroke="#000" stroke-width="1.4"
              stroke-miterlimit="10" pointer-events="none"/>
        <path d="M 280 58.8 L 280 58.8" fill="none" stroke="#000"
              stroke-width="1.4" stroke-miterlimit="10" pointer-events="none"/>
        <path d="M 270.2 70 L 270.2 70" fill="none" stroke="#000"
              stroke-width="1.4" stroke-miterlimit="10" pointer-events="none"/>
        <path d="M 260.4 70 L 260.4 70" fill="none" stroke="#000"
              stroke-width="1.4" stroke-miterlimit="10" pointer-events="none"/>
        <path d="M 250.6 70 L 250.6 70" fill="none" stroke="#000"
              stroke-width="1.4" stroke-miterlimit="10" pointer-events="none"/>
        <path d="M 240.8 70 L 240.8 70" fill="none" stroke="#000"
              stroke-width="1.4" stroke-miterlimit="10" pointer-events="none"/>
        <path d="M 231 70 L 231 70" fill="none" stroke="#000" stroke-width="1.4"
              stroke-miterlimit="10" pointer-events="none"/>
        <path d="M 221.2 70 L 221.2 70" fill="none" stroke="#000"
              stroke-width="1.4" stroke-miterlimit="10" pointer-events="none"/>
        <path d="M 210 60.2 L 210 60.2" fill="none" stroke="#000"
              stroke-width="1.4" stroke-miterlimit="10" pointer-events="none"/>
        <path d="M 210 50.4 L 210 50.4" fill="none" stroke="#000"
              stroke-width="1.4" stroke-miterlimit="10" pointer-events="none"/>
        <path d="M 210 40.6 L 210 40.6" fill="none" stroke="#000"
              stroke-width="1.4" stroke-miterlimit="10" pointer-events="none"/>
        <path d="M 210 30.8 L 210 30.8" fill="none" stroke="#000"
              stroke-width="1.4" stroke-miterlimit="10" pointer-events="none"/>
        <path d="M 210 21 L 210 21" fill="none" stroke="#000" stroke-width="1.4"
              stroke-miterlimit="10" pointer-events="none"/>
        <path d="M 210 11.2 L 210 11.2" fill="none" stroke="#000"
              stroke-width="1.4" stroke-miterlimit="10" pointer-events="none"/>
        <path d="M 219.8 0 L 219.8 0" fill="none" stroke="#000"
              stroke-width="1.4" stroke-miterlimit="10" pointer-events="none"/>
        <path d="M 229.6 0 L 229.6 0" fill="none" stroke="#000"
              stroke-width="1.4" stroke-miterlimit="10" pointer-events="none"/>
        <path d="M 239.4 0 L 239.4 0" fill="none" stroke="#000"
              stroke-width="1.4" stroke-miterlimit="10" pointer-events="none"/>
        <path d="M 249.2 0 L 249.2 0" fill="none" stroke="#000"
              stroke-width="1.4" stroke-miterlimit="10" pointer-events="none"/>
        <path d="M 259 0 L 259 0" fill="none" stroke="#000" stroke-width="1.4"
              stroke-miterlimit="10" pointer-events="none"/>
        <path d="M 268.8 0 L 268.8 0" fill="none" stroke="#000"
              stroke-width="1.4" stroke-miterlimit="10" pointer-events="none"/>
        <rect x="238" y="77" width="14.7" height="9.1" fill-opacity="0"
              fill="#dae2f2" stroke="none" pointer-events="none"/>
        <g fill="#000000" font-family="Arial,Helvetica" font-weight="bold"
           text-anchor="middle" font-size="8.399999999999999px">
            <text x="245.35" y="84.35">
                U33
            </text>
        </g>
        <rect x="238" y="28" width="16.1" height="9.1" fill-opacity="0"
              fill="#dae2f2" stroke="none" pointer-events="none"/>
        <g fill="#000000" font-family="Arial,Helvetica" font-weight="bold"
           text-anchor="middle" font-size="8.399999999999999px">
            <text x="246.05" y="35.35">
                FPU
            </text>
        </g>
        <rect x="945" y="70" width="70" height="70" fill="#6ccefb" stroke="#000"
              stroke-width="2.1" pointer-events="none"/>
        <path d="M 1015 79.8 L 1015 79.8" fill="none" stroke="#000"
              stroke-width="1.4" stroke-miterlimit="10" pointer-events="none"/>
        <path d="M 1015 89.6 L 1015 89.6" fill="none" stroke="#000"
              stroke-width="1.4" stroke-miterlimit="10" pointer-events="none"/>
        <path d="M 1015 99.4 L 1015 99.4" fill="none" stroke="#000"
              stroke-width="1.4" stroke-miterlimit="10" pointer-events="none"/>
        <path d="M 1015 109.2 L 1015 109.2" fill="none" stroke="#000"
              stroke-width="1.4" stroke-miterlimit="10" pointer-events="none"/>
        <path d="M 1015 119 L 1015 119" fill="none" stroke="#000"
              stroke-width="1.4" stroke-miterlimit="10" pointer-events="none"/>
        <path d="M 1015 128.8 L 1015 128.8" fill="none" stroke="#000"
              stroke-width="1.4" stroke-miterlimit="10" pointer-events="none"/>
        <path d="M 1005.2 140 L 1005.2 140" fill="none" stroke="#000"
              stroke-width="1.4" stroke-miterlimit="10" pointer-events="none"/>
        <path d="M 995.4 140 L 995.4 140" fill="none" stroke="#000"
              stroke-width="1.4" stroke-miterlimit="10" pointer-events="none"/>
        <path d="M 985.6 140 L 985.6 140" fill="none" stroke="#000"
              stroke-width="1.4" stroke-miterlimit="10" pointer-events="none"/>
        <path d="M 975.8 140 L 975.8 140" fill="none" stroke="#000"
              stroke-width="1.4" stroke-miterlimit="10" pointer-events="none"/>
        <path d="M 966 140 L 966 140" fill="none" stroke="#000"
              stroke-width="1.4" stroke-miterlimit="10" pointer-events="none"/>
        <path d="M 956.2 140 L 956.2 140" fill="none" stroke="#000"
              stroke-width="1.4" stroke-miterlimit="10" pointer-events="none"/>
        <path d="M 945 130.2 L 945 130.2" fill="none" stroke="#000"
              stroke-width="1.4" stroke-miterlimit="10" pointer-events="none"/>
        <path d="M 945 120.4 L 945 120.4" fill="none" stroke="#000"
              stroke-width="1.4" stroke-miterlimit="10" pointer-events="none"/>
        <path d="M 945 110.6 L 945 110.6" fill="none" stroke="#000"
              stroke-width="1.4" stroke-miterlimit="10" pointer-events="none"/>
        <path d="M 945 100.8 L 945 100.8" fill="none" stroke="#000"
              stroke-width="1.4" stroke-miterlimit="10" pointer-events="none"/>
        <path d="M 945 91 L 945 91" fill="none" stroke="#000" stroke-width="1.4"
              stroke-miterlimit="10" pointer-events="none"/>
        <path d="M 945 81.2 L 945 81.2" fill="none" stroke="#000"
              stroke-width="1.4" stroke-miterlimit="10" pointer-events="none"/>
        <path d="M 954.8 70 L 954.8 70" fill="none" stroke="#000"
              stroke-width="1.4" stroke-miterlimit="10" pointer-events="none"/>
        <path d="M 964.6 70 L 964.6 70" fill="none" stroke="#000"
              stroke-width="1.4" stroke-miterlimit="10" pointer-events="none"/>
        <path d="M 974.4 70 L 974.4 70" fill="none" stroke="#000"
              stroke-width="1.4" stroke-miterlimit="10" pointer-events="none"/>
        <path d="M 984.2 70 L 984.2 70" fill="none" stroke="#000"
              stroke-width="1.4" stroke-miterlimit="10" pointer-events="none"/>
        <path d="M 994 70 L 994 70" fill="none" stroke="#000" stroke-width="1.4"
              stroke-miterlimit="10" pointer-events="none"/>
        <path d="M 1003.8 70 L 1003.8 70" fill="none" stroke="#000"
              stroke-width="1.4" stroke-miterlimit="10" pointer-events="none"/>
        <rect x="973" y="147" width="14.7" height="9.1" fill-opacity="0"
              fill="#dae2f2" stroke="none" pointer-events="none"/>
        <g fill="#000000" font-family="Arial,Helvetica" font-weight="bold"
           text-anchor="middle" font-size="8.399999999999999px">
            <text x="980.35" y="154.35">
                U36
            </text>
        </g>
        <rect x="966" y="98" width="23.1" height="9.1" fill-opacity="0"
              fill="#dae2f2" stroke="none" pointer-events="none"/>
        <g fill="#000000" font-family="Arial,Helvetica" font-weight="bold"
           text-anchor="middle" font-size="8.399999999999999px">
            <text x="977.55" y="105.35">
                SDMA
            </text>
        </g>
        <path d="M 336 84 L 941.87 84" fill="none" stroke="#000000"
              stroke-width="1.4" stroke-miterlimit="10" pointer-events="none"/>
        <path d="M 939.23 86.1 L 943.43 84 L 939.23 81.9" fill="none"
              stroke="#000000" stroke-width="1.4" stroke-miterlimit="10"
              pointer-events="none"/>
        <g fill="#000000" font-family="Arial,Helvetica" text-anchor="middle"
           font-size="7.699999999999999px">
            <rect fill="#FFFFFF" stroke="none" x="880" y="72" width="63"
                  height="10" stroke-width="0"/>
            <text x="911" y="79.45">
                #110 (CPUCLKA)
            </text>
        </g>
        <rect x="161" y="140" width="70" height="70" fill="#6ccefb"
              stroke="#000" stroke-width="2.1" pointer-events="none"/>
        <path d="M 231 149.8 L 231 149.8" fill="none" stroke="#000"
              stroke-width="1.4" stroke-miterlimit="10" pointer-events="none"/>
        <path d="M 231 159.6 L 231 159.6" fill="none" stroke="#000"
              stroke-width="1.4" stroke-miterlimit="10" pointer-events="none"/>
        <path d="M 231 169.4 L 231 169.4" fill="none" stroke="#000"
              stroke-width="1.4" stroke-miterlimit="10" pointer-events="none"/>
        <path d="M 231 179.2 L 231 179.2" fill="none" stroke="#000"
              stroke-width="1.4" stroke-miterlimit="10" pointer-events="none"/>
        <path d="M 231 189 L 231 189" fill="none" stroke="#000"
              stroke-width="1.4" stroke-miterlimit="10" pointer-events="none"/>
        <path d="M 231 198.8 L 231 198.8" fill="none" stroke="#000"
              stroke-width="1.4" stroke-miterlimit="10" pointer-events="none"/>
        <path d="M 221.2 210 L 221.2 210" fill="none" stroke="#000"
              stroke-width="1.4" stroke-miterlimit="10" pointer-events="none"/>
        <path d="M 211.4 210 L 211.4 210" fill="none" stroke="#000"
              stroke-width="1.4" stroke-miterlimit="10" pointer-events="none"/>
        <path d="M 201.6 210 L 201.6 210" fill="none" stroke="#000"
              stroke-width="1.4" stroke-miterlimit="10" pointer-events="none"/>
        <path d="M 191.8 210 L 191.8 210" fill="none" stroke="#000"
              stroke-width="1.4" stroke-miterlimit="10" pointer-events="none"/>
        <path d="M 182 210 L 182 210" fill="none" stroke="#000"
              stroke-width="1.4" stroke-miterlimit="10" pointer-events="none"/>
        <path d="M 172.2 210 L 172.2 210" fill="none" stroke="#000"
              stroke-width="1.4" stroke-miterlimit="10" pointer-events="none"/>
        <path d="M 161 200.2 L 161 200.2" fill="none" stroke="#000"
              stroke-width="1.4" stroke-miterlimit="10" pointer-events="none"/>
        <path d="M 161 190.4 L 161 190.4" fill="none" stroke="#000"
              stroke-width="1.4" stroke-miterlimit="10" pointer-events="none"/>
        <path d="M 161 180.6 L 161 180.6" fill="none" stroke="#000"
              stroke-width="1.4" stroke-miterlimit="10" pointer-events="none"/>
        <path d="M 161 170.8 L 161 170.8" fill="none" stroke="#000"
              stroke-width="1.4" stroke-miterlimit="10" pointer-events="none"/>
        <path d="M 161 161 L 161 161" fill="none" stroke="#000"
              stroke-width="1.4" stroke-miterlimit="10" pointer-events="none"/>
        <path d="M 161 151.2 L 161 151.2" fill="none" stroke="#000"
              stroke-width="1.4" stroke-miterlimit="10" pointer-events="none"/>
        <path d="M 170.8 140 L 170.8 140" fill="none" stroke="#000"
              stroke-width="1.4" stroke-miterlimit="10" pointer-events="none"/>
        <path d="M 180.6 140 L 180.6 140" fill="none" stroke="#000"
              stroke-width="1.4" stroke-miterlimit="10" pointer-events="none"/>
        <path d="M 190.4 140 L 190.4 140" fill="none" stroke="#000"
              stroke-width="1.4" stroke-miterlimit="10" pointer-events="none"/>
        <path d="M 200.2 140 L 200.2 140" fill="none" stroke="#000"
              stroke-width="1.4" stroke-miterlimit="10" pointer-events="none"/>
        <path d="M 210 140 L 210 140" fill="none" stroke="#000"
              stroke-width="1.4" stroke-miterlimit="10" pointer-events="none"/>
        <path d="M 219.8 140 L 219.8 140" fill="none" stroke="#000"
              stroke-width="1.4" stroke-miterlimit="10" pointer-events="none"/>
        <rect x="189" y="217" width="14.7" height="9.1" fill-opacity="0"
              fill="#dae2f2" stroke="none" pointer-events="none"/>
        <g fill="#000000" font-family="Arial,Helvetica" font-weight="bold"
           text-anchor="middle" font-size="8.399999999999999px">
            <text x="196.35" y="224.35">
                U55
            </text>
        </g>
        <rect x="182" y="175" width="16.8" height="9.1" fill-opacity="0"
              fill="#dae2f2" stroke="none" pointer-events="none"/>
        <g fill="#000000" font-family="Arial,Helvetica" font-weight="bold"
           text-anchor="middle" font-size="8.399999999999999px">
            <text x="190.4" y="182.35">
                CPU
            </text>
        </g>
        <path d="M 283.13 35 L 329 35 Q 336 35 336 42 L 336 238" fill="none"
              stroke="#000000" stroke-width="1.4" stroke-miterlimit="10"
              pointer-events="none"/>
        <path d="M 285.77 32.9 L 281.57 35 L 285.77 37.1" fill="none"
              stroke="#000000" stroke-width="1.4" stroke-miterlimit="10"
              pointer-events="none"/>
        <g fill="#000000" font-family="Arial,Helvetica" text-anchor="middle"
           font-size="7.699999999999999px">
            <rect fill="#FFFFFF" stroke="none" x="286" y="23" width="58"
                  height="10" stroke-width="0"/>
            <text x="315" y="30.45">
                #11 (CPUCLKA)
            </text>
        </g>
        <path d="M 378 280 L 378 283.5 Q 378 287 371 287 L 224 287 Q 217 287 217 280 L 217 213.13"
              fill="none" stroke="#000000" stroke-width="1.4"
              stroke-miterlimit="10" pointer-events="none"/>
        <path d="M 219.1 215.77 L 217 211.57 L 214.9 215.77" fill="none"
              stroke="#000000" stroke-width="1.4" stroke-miterlimit="10"
              pointer-events="none"/>
        <g fill="#000000" font-family="Arial,Helvetica" text-anchor="middle"
           font-size="7.699999999999999px">
            <rect fill="#FFFFFF" stroke="none" x="225" y="212" width="54"
                  height="10" stroke-width="0"/>
            <text x="252" y="219.45">
                #6 (CPUCLKB)
            </text>
        </g>
        <rect x="251.3" y="300.3" width="1.4" height="1.4" fill="#000000"
              stroke="none" transform="rotate(270,301,343)"
              pointer-events="none"/>
        <rect x="251.3" y="314.3" width="1.4" height="1.4" fill="#000000"
              stroke="none" transform="rotate(270,301,343)"
              pointer-events="none"/>
        <rect x="251.3" y="328.3" width="1.4" height="1.4" fill="#000000"
              stroke="none" transform="rotate(270,301,343)"
              pointer-events="none"/>
        <rect x="251.3" y="342.3" width="1.4" height="1.4" fill="#000000"
              stroke="none" transform="rotate(270,301,343)"
              pointer-events="none"/>
        <rect x="251.3" y="356.3" width="1.4" height="1.4" fill="#000000"
              stroke="none" transform="rotate(270,301,343)"
              pointer-events="none"/>
        <rect x="251.3" y="370.3" width="1.4" height="1.4" fill="#000000"
              stroke="none" transform="rotate(270,301,343)"
              pointer-events="none"/>
        <rect x="251.3" y="384.3" width="1.4" height="1.4" fill="#000000"
              stroke="none" transform="rotate(270,301,343)"
              pointer-events="none"/>
        <rect x="349.3" y="384.3" width="1.4" height="1.4" fill="#000000"
              stroke="none" transform="rotate(270,301,343)"
              pointer-events="none"/>
        <rect x="349.3" y="370.3" width="1.4" height="1.4" fill="#000000"
              stroke="none" transform="rotate(270,301,343)"
              pointer-events="none"/>
        <rect x="349.3" y="356.3" width="1.4" height="1.4" fill="#000000"
              stroke="none" transform="rotate(270,301,343)"
              pointer-events="none"/>
        <rect x="349.3" y="342.3" width="1.4" height="1.4" fill="#000000"
              stroke="none" transform="rotate(270,301,343)"
              pointer-events="none"/>
        <rect x="349.3" y="328.3" width="1.4" height="1.4" fill="#000000"
              stroke="none" transform="rotate(270,301,343)"
              pointer-events="none"/>
        <rect x="349.3" y="314.3" width="1.4" height="1.4" fill="#000000"
              stroke="none" transform="rotate(270,301,343)"
              pointer-events="none"/>
        <rect x="349.3" y="300.3" width="1.4" height="1.4" fill="#000000"
              stroke="none" transform="rotate(270,301,343)"
              pointer-events="none"/>
        <rect x="266" y="259" width="70" height="168" fill="#fff" stroke="#000"
              stroke-width="2.1" transform="rotate(270,301,343)"
              pointer-events="none"/>
        <g fill="#000000" font-family="Arial,Helvetica" font-size="11.2px"
           transform="rotate(270,301,343)">
            <text x="269.5" y="303.1">
                D0A
            </text>
        </g>
        <path d="M 266 301 L 252.7 301" fill="none" stroke="#000"
              stroke-width="1.4" stroke-miterlimit="10"
              transform="rotate(270,301,343)" pointer-events="none"/>
        <g fill="#000000" font-family="Arial,Helvetica" font-size="11.2px"
           transform="rotate(270,301,343)">
            <text x="269.5" y="317.1">
                D0B
            </text>
        </g>
        <path d="M 266 315 L 252.7 315" fill="none" stroke="#000"
              stroke-width="1.4" stroke-miterlimit="10"
              transform="rotate(270,301,343)" pointer-events="none"/>
        <g fill="#000000" font-family="Arial,Helvetica" font-size="11.2px"
           transform="rotate(270,301,343)">
            <text x="269.5" y="331.1">
                Q0
            </text>
        </g>
        <path d="M 266 329 L 252.7 329" fill="none" stroke="#000"
              stroke-width="1.4" stroke-miterlimit="10"
              transform="rotate(270,301,343)" pointer-events="none"/>
        <g fill="#000000" font-family="Arial,Helvetica" font-size="11.2px"
           transform="rotate(270,301,343)">
            <text x="269.5" y="345.1">
                D1A
            </text>
        </g>
        <path d="M 266 343 L 252.7 343" fill="none" stroke="#000"
              stroke-width="1.4" stroke-miterlimit="10"
              transform="rotate(270,301,343)" pointer-events="none"/>
        <g fill="#000000" font-family="Arial,Helvetica" font-size="11.2px"
           transform="rotate(270,301,343)">
            <text x="269.5" y="359.1">
                D1B
            </text>
        </g>
        <path d="M 266 357 L 252.7 357" fill="none" stroke="#000"
              stroke-width="1.4" stroke-miterlimit="10"
              transform="rotate(270,301,343)" pointer-events="none"/>
        <g fill="#000000" font-family="Arial,Helvetica" font-size="11.2px"
           transform="rotate(270,301,343)">
            <text x="269.5" y="373.1">
                Q1
            </text>
        </g>
        <path d="M 266 371 L 252.7 371" fill="none" stroke="#000"
              stroke-width="1.4" stroke-miterlimit="10"
              transform="rotate(270,301,343)" pointer-events="none"/>
        <g fill="#000000" font-family="Arial,Helvetica" font-size="11.2px"
           transform="rotate(270,301,343)">
            <text x="269.5" y="387.1">
                GND
            </text>
        </g>
        <path d="M 266 385 L 252.7 385" fill="none" stroke="#000"
              stroke-width="1.4" stroke-miterlimit="10"
              transform="rotate(270,301,343)" pointer-events="none"/>
        <g fill="#000000" font-family="Arial,Helvetica" text-anchor="end"
           font-size="11.2px" transform="rotate(270,301,343)">
            <text x="332.5" y="387.1">
                Q2
            </text>
        </g>
        <path d="M 336 385 L 349.3 385" fill="none" stroke="#000"
              stroke-width="1.4" stroke-miterlimit="10"
              transform="rotate(270,301,343)" pointer-events="none"/>
        <g fill="#000000" font-family="Arial,Helvetica" text-anchor="end"
           font-size="11.2px" transform="rotate(270,301,343)">
            <text x="332.5" y="373.1">
                D2A
            </text>
        </g>
        <path d="M 336 371 L 349.3 371" fill="none" stroke="#000"
              stroke-width="1.4" stroke-miterlimit="10"
              transform="rotate(270,301,343)" pointer-events="none"/>
        <g fill="#000000" font-family="Arial,Helvetica" text-anchor="end"
           font-size="11.2px" transform="rotate(270,301,343)">
            <text x="332.5" y="359.1">
                D2B
            </text>
        </g>
        <path d="M 336 357 L 349.3 357" fill="none" stroke="#000"
              stroke-width="1.4" stroke-miterlimit="10"
              transform="rotate(270,301,343)" pointer-events="none"/>
        <g fill="#000000" font-family="Arial,Helvetica" text-anchor="end"
           font-size="11.2px" transform="rotate(270,301,343)">
            <text x="332.5" y="345.1">
                Q3
            </text>
        </g>
        <path d="M 336 343 L 349.3 343" fill="none" stroke="#000"
              stroke-width="1.4" stroke-miterlimit="10"
              transform="rotate(270,301,343)" pointer-events="none"/>
        <g fill="#000000" font-family="Arial,Helvetica" text-anchor="end"
           font-size="11.2px" transform="rotate(270,301,343)">
            <text x="332.5" y="331.1">
                D3A
            </text>
        </g>
        <path d="M 336 329 L 349.3 329" fill="none" stroke="#000"
              stroke-width="1.4" stroke-miterlimit="10"
              transform="rotate(270,301,343)" pointer-events="none"/>
        <g fill="#000000" font-family="Arial,Helvetica" text-anchor="end"
           font-size="11.2px" transform="rotate(270,301,343)">
            <text x="332.5" y="317.1">
                D3B
            </text>
        </g>
        <path d="M 336 315 L 349.3 315" fill="none" stroke="#000"
              stroke-width="1.4" stroke-miterlimit="10"
              transform="rotate(270,301,343)" pointer-events="none"/>
        <g fill="#000000" font-family="Arial,Helvetica" text-anchor="end"
           font-size="11.2px" transform="rotate(270,301,343)">
            <text x="332.5" y="303.1">
                VCC
            </text>
        </g>
        <path d="M 336 301 L 349.3 301" fill="none" stroke="#000"
              stroke-width="1.4" stroke-miterlimit="10"
              transform="rotate(270,301,343)" pointer-events="none"/>
        <rect x="357" y="385" width="22.4" height="9.1" fill-opacity="0"
              fill="#dae2f2" stroke="none" pointer-events="none"/>
        <g fill="#000000" font-family="Arial,Helvetica" font-weight="bold"
           text-anchor="middle" font-size="8.399999999999999px">
            <text x="368.2" y="392.35">
                74F08
            </text>
        </g>
        <rect x="293.3" y="230.3" width="1.4" height="1.4" fill="#000000"
              stroke="none" pointer-events="none"/>
        <path d="M 294 217.7 L 294 230.3" fill="#000000" stroke="#000000"
              stroke-width="1.4" stroke-linecap="square" stroke-miterlimit="10"
              pointer-events="none"/>
        <rect x="335.3" y="237.3" width="1.4" height="1.4" fill="#000000"
              stroke="none" pointer-events="none"/>
        <path d="M 336 238.7 L 336 251.3" fill="#000000" stroke="#000000"
              stroke-width="1.4" stroke-linecap="square" stroke-miterlimit="10"
              pointer-events="none"/>
        <rect x="335.3" y="279.3" width="1.4" height="1.4" fill="#000000"
              stroke="none" pointer-events="none"/>
        <path d="M 336 266.7 L 336 279.3" fill="#000000" stroke="#000000"
              stroke-width="1.4" stroke-linecap="square" stroke-miterlimit="10"
              pointer-events="none"/>
        <path d="M 294 280 L 334.6 280" fill="none" stroke="#000000"
              stroke-width="1.4" stroke-miterlimit="10" pointer-events="none"/>
        <ellipse cx="336" cy="280" rx="1.4" ry="1.4" fill="#000000"
                 stroke="#000000" stroke-width="1.4" pointer-events="none"/>
        <path d="M 343 294 L 357 294 L 357 238 L 336 238 L 337.4 238"
              fill="none" stroke="#000000" stroke-width="1.4"
              stroke-miterlimit="10" stroke-dasharray="1.4 1.4"
              pointer-events="none"/>
        <ellipse cx="336" cy="238" rx="1.4" ry="1.4" fill="#000000"
                 stroke="#000000" stroke-width="1.4" pointer-events="none"/>
        <path d="M 329 294 L 315 294" fill="none" stroke="#000000"
              stroke-width="1.4" stroke-miterlimit="10" pointer-events="none"/>
        <path d="M 323.4 294 L 336 294 L 336 281.4" fill="none" stroke="#000000"
              stroke-width="1.4" stroke-miterlimit="10"
              stroke-dasharray="1.4 1.4" pointer-events="none"/>
        <ellipse cx="322" cy="294" rx="1.4" ry="1.4" fill="#000000"
                 stroke="#000000" stroke-width="1.4" pointer-events="none"/>
        <ellipse cx="336" cy="280" rx="1.4" ry="1.4" fill="#000000"
                 stroke="#000000" stroke-width="1.4" pointer-events="none"/>
        <path d="M 301 294 L 301 231 L 294 231" fill="none" stroke="#000000"
              stroke-width="1.4" stroke-miterlimit="10"
              stroke-dasharray="1.4 1.4" pointer-events="none"/>
        <path d="M 273 294 L 287 294" fill="none" stroke="#000000"
              stroke-width="1.4" stroke-miterlimit="10" pointer-events="none"/>
        <path d="M 294 238 L 294 238 L 280 238 L 280 292.6" fill="none"
              stroke="#000000" stroke-width="1.4" stroke-miterlimit="10"
              stroke-dasharray="1.4 1.4" pointer-events="none"/>
        <ellipse cx="280" cy="294" rx="1.4" ry="1.4" fill="#000000"
                 stroke="#000000" stroke-width="1.4" pointer-events="none"/>
        <path d="M 337.4 280 L 364 280 L 364 238 L 376.6 238" fill="none"
              stroke="#000000" stroke-width="1.4" stroke-miterlimit="10"
              pointer-events="none"/>
        <ellipse cx="336" cy="280" rx="1.4" ry="1.4" fill="#000000"
                 stroke="#000000" stroke-width="1.4" pointer-events="none"/>
        <ellipse cx="378" cy="238" rx="1.4" ry="1.4" fill="#000000"
                 stroke="#000000" stroke-width="1.4" pointer-events="none"/>
        <path d="M 490 175 L 378 175 L 378 236.6" fill="none" stroke="#000000"
              stroke-width="1.4" stroke-miterlimit="10" pointer-events="none"/>
        <ellipse cx="378" cy="238" rx="1.4" ry="1.4" fill="#000000"
                 stroke="#000000" stroke-width="1.4" pointer-events="none"/>
        <path d="M 476 182 L 476 175 L 476 176.4" fill="none" stroke="#000000"
              stroke-width="1.4" stroke-miterlimit="10" pointer-events="none"/>
        <ellipse cx="476" cy="175" rx="1.4" ry="1.4" fill="#000000"
                 stroke="#000000" stroke-width="1.4" pointer-events="none"/>
    </g>
</svg>